<?xml version="1.0" encoding="UTF-8" standalone="no"?>
<!DOCTYPE svg PUBLIC "-//W3C//DTD SVG 1.1//EN" "http://www.w3.org/Graphics/SVG/1.1/DTD/svg11.dtd">
<svg xmlns="http://www.w3.org/2000/svg" version="1.1" viewBox="0.00 0.00 300.00 300.00">
<path fill="#eeeeee" d="
  M 142.13 0.00
  L 159.25 0.00
  Q 177.04 1.22 194.99 6.73
  C 198.31 7.76 201.24 9.19 204.58 9.97
  Q 207.98 10.76 211.48 12.42
  Q 212.16 12.75 211.81 13.41
  Q 211.46 14.07 210.70 14.08
  Q 209.96 14.10 210.30 14.75
  L 210.73 15.58
  Q 211.01 16.12 210.41 16.14
  L 209.11 16.19
  A 0.27 0.26 59.9 0 0 208.98 16.68
  Q 209.95 17.28 210.94 17.15
  Q 211.32 17.10 211.62 17.34
  C 212.23 17.85 212.71 18.34 213.44 18.70
  Q 220.87 22.38 227.15 26.03
  Q 228.46 26.79 229.08 28.20
  Q 229.47 29.11 228.55 28.73
  C 224.61 27.11 221.29 24.61 217.33 22.87
  Q 204.35 17.16 192.85 13.45
  Q 191.03 12.86 189.46 14.00
  Q 188.93 14.39 189.55 14.58
  Q 197.92 17.20 205.55 20.49
  Q 214.45 24.33 222.95 29.63
  A 0.46 0.46 0.0 0 1 222.99 30.38
  L 222.69 30.61
  A 1.19 1.19 0.0 0 1 221.42 30.72
  C 211.64 25.70 204.58 21.74 196.40 19.03
  Q 194.59 18.43 192.71 18.68
  C 190.33 19.00 188.03 17.66 185.64 17.26
  Q 181.26 16.52 176.72 15.59
  C 148.14 9.78 117.67 14.51 92.82 26.90
  Q 86.67 29.96 76.42 36.56
  Q 67.86 42.08 58.67 50.43
  Q 38.75 68.55 27.69 93.54
  Q 14.85 122.55 16.06 154.47
  Q 16.18 157.68 16.52 160.55
  C 16.85 163.41 16.91 166.27 17.35 169.14
  Q 22.79 204.60 44.57 232.26
  Q 70.96 265.78 112.81 277.95
  C 117.04 279.18 121.38 280.07 125.59 281.55
  Q 129.91 283.06 135.39 283.16
  Q 141.67 283.27 147.92 283.77
  C 151.58 284.06 155.22 283.37 158.82 283.71
  Q 161.65 283.97 164.14 283.45
  C 169.68 282.28 175.31 281.80 180.73 280.20
  Q 186.08 278.61 191.90 277.37
  Q 193.77 276.97 195.46 276.15
  C 196.96 275.42 198.43 274.65 200.08 274.30
  Q 203.68 273.53 206.43 272.10
  C 216.32 266.99 226.87 260.81 235.58 253.44
  Q 261.20 231.75 273.42 200.09
  C 280.94 180.62 283.37 161.03 281.38 140.73
  Q 280.56 132.31 280.07 123.55
  Q 279.98 121.86 281.10 120.81
  Q 281.46 120.48 281.37 119.99
  Q 280.51 115.20 279.34 110.60
  C 279.12 109.75 279.40 109.26 279.80 108.56
  A 0.91 0.86 52.0 0 0 279.87 107.83
  L 278.43 103.40
  Q 277.84 101.57 279.54 102.46
  Q 281.77 103.63 282.75 106.30
  Q 283.74 108.99 283.82 111.67
  Q 284.00 117.71 288.09 120.01
  Q 288.50 120.24 288.77 120.63
  Q 288.86 120.76 288.94 120.92
  Q 289.31 121.60 289.22 120.83
  Q 289.07 119.53 288.62 118.44
  Q 286.27 112.71 285.15 106.89
  A 0.70 0.70 0.0 0 1 285.78 106.06
  L 286.75 105.99
  Q 287.44 105.93 287.64 106.60
  Q 289.61 113.33 292.49 119.81
  Q 294.20 123.66 295.31 127.64
  C 296.32 131.26 297.74 134.46 297.84 138.31
  C 298.12 149.82 298.60 162.88 296.40 174.36
  Q 293.28 190.58 288.65 204.99
  Q 287.18 209.58 284.93 213.96
  Q 282.73 218.23 280.95 222.48
  Q 278.37 228.61 273.98 235.08
  Q 261.38 253.61 246.02 266.16
  Q 243.54 268.18 240.91 269.64
  Q 235.32 272.72 228.32 277.03
  Q 216.48 284.31 211.13 286.39
  Q 205.06 288.75 198.68 291.18
  Q 193.34 293.21 188.65 294.33
  C 184.16 295.41 179.83 297.22 175.11 297.73
  Q 152.94 300.14 129.46 298.27
  Q 123.02 297.76 117.26 296.24
  C 110.42 294.43 103.16 292.62 96.81 289.92
  Q 84.12 284.53 80.12 282.26
  Q 72.63 278.02 62.55 271.19
  Q 55.01 266.09 50.20 261.47
  Q 43.63 255.17 36.80 248.10
  Q 33.51 244.70 30.92 240.57
  C 28.18 236.21 25.09 232.14 22.59 227.69
  C 21.35 225.50 19.69 223.79 18.52 221.55
  Q 14.54 213.89 12.40 209.22
  C 12.03 208.41 12.11 207.61 11.60 206.77
  C 10.04 204.14 9.59 201.55 8.73 198.77
  Q 5.83 189.32 3.00 178.79
  C 2.14 175.61 1.75 172.04 1.62 168.77
  Q 1.38 162.86 1.16 157.73
  Q -0.22 125.97 10.14 97.81
  Q 13.81 87.82 19.32 77.90
  Q 35.31 49.09 59.93 30.54
  Q 85.51 11.26 114.23 4.26
  Q 125.60 1.49 142.13 0.00
  Z
  M 206.9808 12.6644
  A 0.99 0.48 7.8 0 0 206.0651 12.0544
  A 0.99 0.48 7.8 0 0 205.0192 12.3956
  A 0.99 0.48 7.8 0 0 205.9349 13.0056
  A 0.99 0.48 7.8 0 0 206.9808 12.6644
  Z
  M 186.62 13.13
  Q 186.61 12.82 186.50 12.55
  Q 186.28 12.04 185.79 12.31
  L 184.77 12.86
  Q 184.36 13.09 184.77 13.33
  Q 185.51 13.77 186.33 13.80
  Q 186.78 13.82 186.75 13.37
  Q 186.74 13.22 186.62 13.13
  Z"
/>
</svg>
