<?xml version="1.0" encoding="UTF-8" standalone="no"?>
<!DOCTYPE svg PUBLIC "-//W3C//DTD SVG 1.1//EN" "http://www.w3.org/Graphics/SVG/1.1/DTD/svg11.dtd">
<svg xmlns="http://www.w3.org/2000/svg" version="1.1" viewBox="0.00 0.00 300.00 300.00">
<path fill="#eeeeee" d="
  M 272.18 269.39
  Q 276.02 274.22 281.78 277.64
  A 0.41 0.40 42.6 0 1 281.81 278.32
  L 281.31 278.67
  Q 280.94 278.93 280.59 278.63
  Q 279.21 277.42 277.55 277.82
  Q 277.03 277.94 276.56 277.68
  Q 271.88 275.01 268.28 271.69
  C 267.27 270.76 266.08 270.61 265.16 269.57
  Q 264.80 269.16 264.29 268.97
  Q 262.16 268.17 260.43 266.75
  Q 260.26 266.60 260.13 266.79
  L 259.98 266.99
  Q 259.95 267.02 259.99 267.04
  Q 263.02 268.84 265.60 271.20
  Q 266.18 271.73 265.86 272.45
  L 265.73 272.73
  A 0.43 0.42 29.6 0 1 265.10 272.90
  Q 261.48 270.40 259.22 269.27
  Q 255.63 267.47 258.70 270.06
  Q 262.40 273.19 266.38 276.98
  C 267.29 277.85 268.72 278.22 269.18 279.36
  A 1.11 1.10 89.2 0 0 269.78 279.95
  Q 271.58 280.65 272.37 282.53
  Q 272.59 283.08 272.01 282.99
  C 270.26 282.73 268.30 280.52 266.78 279.56
  Q 265.17 278.55 263.83 277.24
  Q 260.19 273.67 254.42 270.94
  Q 253.72 270.61 254.14 271.26
  C 255.04 272.65 256.29 273.02 257.28 274.21
  Q 257.62 274.63 258.13 274.79
  Q 261.21 275.79 263.30 277.94
  Q 264.44 279.13 262.88 278.61
  C 260.38 277.79 257.75 276.72 255.59 275.05
  Q 245.71 267.40 235.59 260.45
  Q 230.77 257.14 226.05 253.41
  C 221.94 250.17 217.04 247.86 212.96 244.45
  Q 202.45 235.67 191.27 226.68
  Q 189.70 225.43 188.28 224.19
  Q 184.32 220.75 180.52 217.94
  Q 177.71 215.85 175.49 213.73
  Q 173.14 211.49 170.56 209.76
  C 169.15 208.81 168.25 207.44 166.82 206.57
  C 163.78 204.72 161.44 201.45 158.40 199.33
  C 156.72 198.15 155.29 196.45 153.70 195.08
  Q 139.17 182.55 125.04 169.63
  A 0.50 0.50 0.0 0 0 124.33 169.68
  Q 118.94 176.05 113.07 182.58
  C 111.95 183.83 110.69 184.40 109.51 185.50
  Q 101.90 192.59 94.86 201.86
  C 92.21 205.34 90.67 209.23 88.05 212.65
  Q 87.28 213.65 86.37 212.83
  Q 86.05 212.54 85.73 212.83
  Q 84.39 214.07 83.77 215.42
  Q 82.97 217.18 82.22 218.11
  Q 73.88 228.48 67.89 237.65
  Q 54.40 258.28 44.61 275.59
  C 43.09 278.28 41.91 280.92 40.62 284.25
  Q 39.07 288.25 35.02 289.76
  Q 33.40 290.37 31.94 289.45
  Q 31.50 289.18 31.16 289.57
  L 27.66 293.66
  A 0.35 0.34 -28.2 0 1 27.05 293.48
  Q 27.00 293.02 26.57 292.99
  Q 26.30 292.96 26.09 293.12
  Q 23.43 295.11 21.42 292.77
  A 1.54 1.54 0.0 0 1 21.77 290.47
  L 23.68 289.27
  A 2.68 2.68 0.0 0 0 24.14 285.11
  Q 23.13 284.11 21.96 283.56
  Q 21.33 283.27 21.55 282.62
  Q 22.07 281.07 22.18 279.48
  Q 22.21 279.09 22.00 279.42
  L 20.15 282.36
  Q 19.84 282.84 19.98 283.40
  Q 20.10 283.87 20.48 284.20
  Q 21.07 284.71 20.55 285.29
  L 18.51 287.53
  Q 18.02 288.06 17.31 288.01
  L 15.99 287.90
  A 1.02 1.02 0.0 0 1 15.14 286.46
  C 16.08 284.45 16.96 282.08 16.98 279.86
  Q 17.01 277.02 18.07 274.07
  Q 18.44 273.05 17.65 273.78
  Q 16.57 274.78 16.46 276.17
  Q 16.40 276.92 15.83 277.41
  L 14.53 278.55
  Q 13.89 279.11 14.07 278.28
  Q 15.70 270.81 20.01 264.56
  C 21.02 263.09 22.42 262.58 23.63 261.36
  A 1.34 1.33 68.2 0 0 24.02 260.44
  Q 24.05 257.77 24.80 257.00
  Q 29.93 251.71 32.93 245.35
  Q 35.54 239.81 35.60 239.70
  Q 37.80 235.56 39.81 231.13
  Q 42.25 225.79 44.37 222.78
  Q 49.60 215.38 56.33 209.21
  Q 60.78 205.13 65.29 198.77
  C 66.52 197.04 69.24 195.73 69.53 193.60
  Q 69.62 192.99 70.06 192.56
  L 73.95 188.82
  Q 74.37 188.42 74.17 187.87
  C 73.40 185.75 76.51 184.51 77.85 183.72
  Q 78.42 183.39 78.69 182.78
  C 79.16 181.72 79.42 180.61 80.32 179.81
  C 84.35 176.21 87.71 171.61 90.82 167.20
  C 93.09 163.98 96.10 161.55 98.46 158.35
  C 100.65 155.37 103.63 154.86 104.79 150.79
  A 0.97 0.97 0.0 0 0 104.50 149.81
  Q 101.10 146.82 98.68 143.34
  Q 97.25 141.28 95.17 139.63
  Q 93.68 138.46 92.59 136.57
  Q 91.58 134.82 90.19 133.23
  Q 77.29 118.35 65.74 106.65
  Q 62.21 103.07 59.68 99.91
  Q 57.12 96.71 54.50 93.76
  Q 42.28 80.00 32.01 67.46
  Q 25.91 60.01 20.69 52.78
  Q 15.54 45.66 10.39 39.79
  C 8.83 38.01 7.88 31.96 10.72 30.47
  Q 11.17 30.24 10.99 29.76
  L 9.21 25.14
  Q 9.06 24.73 9.36 24.41
  L 9.89 23.86
  Q 10.33 23.39 10.08 22.81
  Q 9.84 22.22 9.89 21.66
  A 3.24 2.51 6.7 0 1 13.47 19.50
  Q 14.41 19.63 14.80 20.94
  C 15.20 22.25 14.44 23.25 14.98 24.66
  Q 15.16 25.13 15.64 25.31
  L 17.84 26.11
  Q 18.38 26.31 18.82 25.94
  Q 21.50 23.70 23.71 26.62
  Q 24.09 27.12 24.20 26.50
  Q 24.25 26.22 24.12 25.97
  Q 22.96 23.68 20.81 22.83
  C 19.63 22.36 19.08 20.99 18.98 19.81
  Q 18.82 18.03 20.63 17.17
  Q 21.17 16.92 21.45 17.44
  Q 22.65 19.71 24.97 21.05
  Q 27.00 22.23 28.78 23.99
  Q 35.09 30.20 40.40 36.20
  C 43.65 39.87 45.61 44.14 48.92 47.69
  C 52.55 51.58 56.06 55.54 59.96 59.12
  Q 66.25 64.90 71.48 71.13
  C 72.79 72.68 73.45 74.70 75.34 75.67
  C 76.05 76.04 76.75 76.96 76.35 77.79
  Q 76.12 78.27 76.39 78.72
  C 77.15 79.99 77.05 81.28 77.99 82.46
  Q 83.00 88.81 88.21 94.76
  Q 89.14 95.82 90.29 96.69
  C 91.65 97.72 91.99 99.49 93.26 100.70
  Q 93.58 101.00 94.01 101.02
  Q 96.32 101.08 96.82 103.40
  C 97.42 106.21 100.01 106.35 101.45 108.56
  C 103.92 112.39 107.75 116.27 110.89 118.27
  Q 113.37 119.86 115.10 122.17
  C 116.21 123.66 116.97 125.20 118.70 126.15
  Q 120.77 127.28 122.22 129.44
  Q 122.47 129.82 122.48 130.29
  Q 122.50 131.74 123.59 130.78
  C 126.33 128.38 129.28 126.87 131.47 123.79
  C 135.13 118.66 140.15 114.95 144.71 110.70
  Q 145.52 109.94 146.93 107.97
  Q 147.83 106.72 149.18 105.61
  C 150.05 104.88 150.72 103.64 152.06 103.97
  A 1.22 1.19 -59.1 0 0 153.16 103.68
  Q 165.26 92.67 177.81 81.35
  Q 191.24 69.23 218.54 47.58
  C 228.65 39.57 240.29 31.53 250.69 23.49
  Q 253.37 21.42 256.45 19.90
  Q 256.90 19.67 257.08 19.19
  Q 257.74 17.40 259.70 17.32
  Q 260.24 17.30 260.65 16.94
  Q 263.01 14.88 265.40 13.48
  Q 266.68 12.73 265.91 14.00
  Q 264.89 15.68 263.26 17.68
  Q 263.23 17.72 263.26 17.77
  L 263.49 18.04
  Q 263.95 18.57 264.49 18.11
  Q 266.07 16.72 267.89 15.99
  A 1.94 1.89 -85.6 0 0 268.88 15.12
  Q 269.85 13.36 271.72 11.93
  Q 276.87 7.98 281.20 5.90
  Q 281.86 5.58 281.72 6.30
  Q 281.55 7.23 280.73 7.77
  Q 274.48 11.94 269.30 16.50
  Q 268.10 17.55 267.32 18.99
  Q 266.47 20.56 264.96 21.36
  Q 264.90 21.39 264.94 21.45
  L 265.07 21.67
  Q 265.21 21.88 265.43 21.77
  C 267.79 20.58 270.13 19.64 272.20 17.92
  C 273.78 16.62 276.23 14.54 278.28 14.13
  Q 279.82 13.82 278.94 15.12
  C 277.91 16.67 276.13 17.32 274.93 18.83
  C 270.43 24.50 264.04 26.95 259.19 32.03
  Q 258.48 32.77 259.36 32.24
  Q 263.18 29.93 266.63 27.24
  Q 266.88 27.05 267.20 27.09
  Q 267.71 27.16 267.40 27.57
  C 265.04 30.72 261.65 33.57 258.71 36.30
  Q 257.94 37.02 258.85 36.49
  Q 270.28 29.82 281.61 22.21
  A 0.36 0.36 0.0 0 1 282.16 22.61
  L 281.93 23.42
  Q 281.70 24.24 281.00 24.73
  Q 277.50 27.23 273.93 29.64
  Q 271.60 31.21 268.65 32.80
  Q 264.77 34.91 261.22 39.18
  Q 260.77 39.73 261.42 39.43
  Q 264.85 37.83 267.44 34.97
  Q 268.44 33.86 269.44 33.46
  Q 272.62 32.18 270.19 34.60
  C 268.36 36.42 266.81 38.28 264.72 39.80
  Q 255.68 46.39 247.39 53.52
  Q 247.19 53.69 246.94 53.78
  Q 246.79 53.83 246.63 53.88
  Q 246.48 53.93 246.36 54.04
  Q 239.82 59.85 233.21 65.15
  C 231.10 66.83 230.03 69.06 227.82 70.79
  Q 221.58 75.64 214.85 81.34
  Q 212.99 82.91 211.16 84.43
  Q 197.41 95.82 184.98 107.99
  Q 183.01 109.92 180.75 111.98
  Q 161.44 129.61 142.99 149.64
  A 0.18 0.18 0.0 0 0 143.10 149.94
  C 144.32 150.10 145.36 150.82 145.98 151.88
  Q 148.62 156.37 153.13 159.89
  Q 153.55 160.21 154.08 160.29
  C 154.27 160.31 154.48 160.40 154.62 160.54
  C 157.58 163.34 160.56 165.99 163.19 169.10
  Q 165.49 171.83 168.11 173.17
  Q 170.78 174.54 172.77 176.70
  Q 173.24 177.21 172.82 177.78
  Q 172.63 178.04 172.69 178.35
  Q 172.76 178.73 173.03 178.99
  Q 179.93 185.53 187.94 192.31
  Q 205.61 207.24 223.59 222.14
  Q 238.72 234.68 260.56 251.90
  Q 261.26 252.45 265.20 255.31
  C 268.07 257.40 270.06 260.15 273.55 261.60
  Q 274.07 261.82 274.37 262.30
  Q 275.70 264.43 278.26 265.23
  Q 279.00 265.47 280.10 266.83
  A 0.55 0.55 0.0 0 1 279.86 267.69
  L 279.47 267.84
  Q 278.77 268.10 278.26 267.54
  Q 277.48 266.69 275.65 266.86
  A 0.24 0.23 -21.5 0 0 275.48 267.24
  Q 277.61 269.89 280.47 271.21
  C 284.59 273.11 288.38 275.93 291.88 278.80
  A 0.49 0.49 0.0 0 1 291.97 279.46
  L 291.82 279.67
  A 0.91 0.90 -54.6 0 1 290.54 279.89
  Q 284.95 275.78 278.87 272.09
  Q 277.16 271.05 275.36 270.73
  Q 273.84 270.45 272.32 269.25
  Q 271.64 268.71 272.18 269.39
  Z
  M 258.3740 36.9547
  A 1.68 0.24 -31.4 0 0 256.8150 37.6251
  A 1.68 0.24 -31.4 0 0 255.5060 38.7053
  A 1.68 0.24 -31.4 0 0 257.0650 38.0349
  A 1.68 0.24 -31.4 0 0 258.3740 36.9547
  Z
  M 87.5232 210.4945
  A 1.24 0.35 128.2 0 0 88.5650 209.7364
  A 1.24 0.35 128.2 0 0 89.0568 208.5455
  A 1.24 0.35 128.2 0 0 88.0150 209.3036
  A 1.24 0.35 128.2 0 0 87.5232 210.4945
  Z"
/>
</svg>
